<?xml version="1.0" standalone="no"?>
<!DOCTYPE svg PUBLIC "-//W3C//DTD SVG 20010904//EN"
 "http://www.w3.org/TR/2001/REC-SVG-20010904/DTD/svg10.dtd">
<svg version="1.0" xmlns="http://www.w3.org/2000/svg"
 width="326.000000pt" height="216.000000pt" viewBox="0 0 326.000000 216.000000"
 preserveAspectRatio="xMidYMid meet">

<g transform="translate(0.000000,216.000000) scale(0.100000,-0.100000)"
fill="#000000" stroke="none">
<path d="M1730 1570 c-30 -5 -68 -11 -85 -12 -16 -2 -32 -6 -35 -10 -3 -4 -17
-8 -30 -10 -43 -7 -154 -67 -200 -108 -58 -53 -68 -56 -175 -64 -49 -4 -115
-11 -145 -16 -30 -6 -84 -12 -120 -15 -36 -3 -152 -17 -259 -31 -107 -13 -201
-22 -209 -19 -7 3 -23 0 -35 -7 -39 -20 -85 -27 -91 -13 -10 28 34 40 208 60
27 3 57 10 66 15 10 5 19 8 21 6 2 -1 12 6 21 16 10 10 14 18 9 18 -6 0 -13
-4 -16 -10 -3 -5 -17 -10 -31 -10 -13 0 -24 -5 -24 -10 0 -7 -6 -7 -18 -1 -13
7 -23 6 -30 -1 -9 -9 -12 -8 -12 6 0 9 -5 14 -10 11 -6 -4 -25 -8 -43 -10
-131 -16 -145 -22 -167 -68 -15 -31 -19 -52 -14 -84 4 -26 10 -40 17 -36 6 3
7 1 3 -5 -4 -7 -47 -11 -121 -11 l-114 1 -4 26 -4 27 -2 -27 c-1 -29 -15 -37
-25 -15 -5 10 -7 10 -12 0 -3 -7 -14 -13 -25 -13 -19 0 -20 -10 -17 -513 l3
-513 27 -41 c16 -25 44 -49 71 -62 l44 -21 1495 2 1494 3 41 27 c24 16 49 44
62 70 21 44 21 53 21 675 0 622 0 632 -20 638 -26 8 -43 -3 -36 -22 4 -9 -3
-23 -15 -34 -16 -14 -19 -22 -11 -32 9 -10 7 -17 -7 -29 -17 -14 -20 -14 -35
3 -14 17 -14 19 0 19 11 0 14 5 10 16 -3 9 -6 20 -6 25 0 6 -6 7 -12 3 -10 -5
-10 -4 -1 6 9 10 9 15 0 24 -18 17 -57 17 -57 0 0 -8 -7 -14 -15 -14 -8 0 -15
-4 -15 -10 0 -5 5 -10 10 -10 6 0 10 -4 10 -10 0 -5 -7 -10 -15 -10 -8 0 -15
-4 -15 -10 0 -9 14 -14 33 -11 4 0 7 -5 7 -13 0 -8 6 -17 13 -20 9 -3 7 -8 -5
-16 -10 -6 -15 -17 -11 -27 4 -11 3 -14 -5 -9 -8 5 -10 2 -6 -8 4 -11 0 -16
-14 -16 -12 0 -24 5 -27 10 -4 6 -11 8 -16 5 -12 -8 -11 2 1 26 9 15 7 19 -5
19 -9 0 -13 -4 -10 -10 3 -5 -1 -10 -9 -10 -9 0 -16 9 -16 21 0 11 -4 18 -9
15 -5 -3 -14 1 -21 9 -7 9 -17 12 -24 7 -6 -4 -21 -7 -33 -6 -14 1 -23 -4 -23
-12 0 -8 -8 -14 -18 -14 -10 0 -23 -5 -30 -12 -9 -9 -13 -7 -18 5 -3 9 -10 14
-15 11 -5 -3 -9 1 -9 8 0 7 -9 2 -19 -11 -17 -22 -19 -23 -28 -6 -9 15 -15 16
-43 6 -30 -10 -36 -9 -57 11 -13 12 -23 26 -23 33 0 6 -9 19 -21 28 -18 16
-24 16 -49 5 -22 -9 -26 -16 -20 -29 8 -13 5 -15 -18 -12 -17 2 -21 0 -12 -4
17 -9 18 -18 6 -45 -9 -21 -37 -23 -55 -5 -10 10 -11 9 -6 -5 7 -17 -1 -21
-60 -34 -33 -7 -34 -7 -115 2 -60 7 -70 15 -70 57 0 25 3 27 39 27 22 0 51 4
65 10 25 9 25 10 9 42 -17 34 -97 118 -113 118 -5 0 -13 6 -17 13 -9 13 -31
27 -106 64 -39 20 -66 25 -155 28 -59 2 -132 0 -162 -5z m-25 -161 c-22 -4
-63 -8 -91 -8 -43 -1 -54 -5 -67 -25 -9 -13 -37 -34 -64 -47 -79 -39 -79 -39
-79 -18 0 11 6 17 12 15 7 -3 15 2 18 10 3 8 12 14 21 14 22 0 75 49 55 52
-32 3 89 15 160 15 65 1 69 0 35 -8z m283 -15 c25 -5 30 -9 20 -16 -8 -6 3 -7
33 -3 25 3 56 1 70 -4 25 -10 16 -14 -36 -13 -29 1 -29 1 -5 -7 24 -7 24 -8
-10 -16 -19 -4 -66 -8 -104 -9 -69 0 -69 0 -35 -14 33 -14 93 -12 134 3 l20 8
-20 -17 -20 -18 20 7 c42 14 54 14 48 -1 -6 -15 -22 -18 -95 -14 -55 2 -91 -7
-82 -22 4 -6 -1 -6 -14 1 -11 6 -53 10 -94 9 -85 -2 -189 29 -232 69 -44 40
-35 53 37 53 34 0 80 3 102 6 30 4 36 3 25 -5 -8 -6 -51 -11 -94 -11 -70 0
-94 -6 -54 -14 7 -2 24 -6 39 -10 24 -7 131 24 153 45 10 9 142 5 194 -7z
m-522 -13 c-32 -21 -54 -18 -35 5 6 8 23 14 38 14 l26 0 -29 -19z m1674 -123
c0 -14 -25 14 -33 37 -6 17 -4 17 13 -4 11 -13 20 -28 20 -33z m-1893 16 c-3
-3 -12 -4 -19 -1 -8 3 -5 6 6 6 11 1 17 -2 13 -5z m-94 -11 c-7 -2 -21 -2 -30
0 -10 3 -4 5 12 5 17 0 24 -2 18 -5z m50 0 c-7 -2 -19 -2 -25 0 -7 3 -2 5 12
5 14 0 19 -2 13 -5z m-274 -128 c-1 -100 -4 -125 -15 -125 -8 0 -14 -7 -14
-15 0 -9 -9 -15 -22 -15 -13 0 -18 3 -12 8 6 4 14 54 17 113 4 59 10 115 14
125 6 17 8 16 15 -6 7 -22 7 -21 4 8 -1 17 1 32 6 32 5 0 8 -56 7 -125z m144
118 c-7 -2 -21 -2 -30 0 -10 3 -4 5 12 5 17 0 24 -2 18 -5z m276 -91 c-1 -55
2 -105 6 -112 5 -9 4 -11 -3 -6 -7 4 -12 3 -12 -3 0 -5 5 -13 10 -16 16 -10
12 -45 -5 -45 -13 0 -15 20 -15 124 0 113 5 156 16 156 3 0 4 -44 3 -98z m149
15 c2 -58 0 -77 -10 -77 -8 -1 -5 -6 6 -15 17 -13 17 -15 4 -15 -9 0 -20 -9
-23 -21 -5 -16 -10 -18 -18 -10 -9 9 -8 14 3 22 9 7 11 12 4 15 -7 3 -9 33 -7
82 5 90 9 105 26 100 8 -3 13 -31 15 -81z m-625 61 c2 -7 1 -22 -4 -33 -7 -17
-8 -17 -8 7 -1 21 -5 26 -18 22 -15 -5 -16 -4 -3 5 20 14 27 14 33 -1z m124
-10 c-3 -8 -6 -5 -6 6 -1 11 2 17 5 13 3 -3 4 -12 1 -19z m-655 -18 c-2 -16
-8 -30 -13 -30 -10 0 -12 21 -3 44 10 27 21 18 16 -14z m445 24 c-3 -3 -12 -4
-19 -1 -8 3 -5 6 6 6 11 1 17 -2 13 -5z m533 -34 c0 -30 -4 -40 -16 -40 -14 0
-14 3 -4 15 9 11 9 15 1 15 -8 0 -9 5 -2 19 6 10 7 21 4 25 -3 3 -1 6 5 6 7 0
12 -16 12 -40z m-680 26 c0 -2 -9 -6 -20 -9 -11 -3 -18 -1 -14 4 5 9 34 13 34
5z m70 -4 c0 -5 -13 -7 -30 -4 -16 2 -30 6 -30 8 0 2 14 4 30 4 17 0 30 -4 30
-8z m-116 -55 c-3 -7 1 -4 9 5 13 16 15 16 25 -8 17 -35 15 -54 -5 -54 -12 0
-14 -3 -6 -8 7 -4 10 -23 8 -46 -5 -48 -15 -60 -15 -18 0 18 -5 32 -10 32 -6
0 -8 -13 -5 -31 4 -22 2 -28 -6 -23 -8 4 -9 3 -5 -4 4 -7 33 -12 70 -12 57 0
62 2 63 23 0 12 2 55 3 95 2 50 6 72 15 72 7 0 16 -7 19 -16 9 -24 7 -54 -4
-54 -16 0 -11 -27 6 -34 25 -9 64 -7 64 4 0 6 6 10 13 10 8 0 14 -7 14 -15 0
-11 -12 -15 -42 -15 -40 0 -42 -2 -40 -27 1 -16 3 -31 3 -35 1 -5 20 -8 43 -8
27 0 38 -4 33 -11 -4 -7 -23 -9 -53 -5 -25 3 -96 6 -157 7 -108 1 -111 2 -109
22 1 12 3 61 4 109 l1 87 28 3 c28 3 48 -22 36 -45z m440 -7 c3 -28 2 -35 -2
-20 -7 23 -9 23 -13 5 -3 -11 -5 -39 -4 -62 1 -33 -2 -40 -12 -31 -17 13 -17
38 0 38 8 0 7 4 -3 10 -13 9 -13 10 0 10 13 0 13 1 0 10 -11 7 -11 10 -2 10 7
0 10 5 6 12 -13 20 -13 62 -1 70 17 10 24 -1 31 -52z m112 1 c-4 -20 -8 -52
-10 -71 -6 -56 -9 -50 -15 30 -7 91 -5 105 16 88 10 -8 13 -23 9 -47z m844 49
c0 -5 -2 -10 -4 -10 -3 0 -8 5 -11 10 -3 6 -1 10 4 10 6 0 11 -4 11 -10z
m1095 0 c3 -5 1 -10 -4 -10 -6 0 -11 5 -11 10 0 6 2 10 4 10 3 0 8 -4 11 -10z
m-2690 -11 c11 -16 1 -19 -13 -3 -7 8 -8 14 -3 14 5 0 13 -5 16 -11z m1562
-11 c-3 -8 -6 -5 -6 6 -1 11 2 17 5 13 3 -3 4 -12 1 -19z m1081 -1 c6 0 12 -7
12 -14 0 -8 5 -11 10 -8 6 4 8 11 5 16 -4 5 -2 9 4 9 5 0 13 -5 16 -11 9 -14
-3 -61 -15 -54 -5 3 -12 0 -15 -6 -4 -5 -13 -8 -20 -5 -8 3 -16 0 -18 -7 -2
-7 -4 2 -4 18 -1 17 4 33 11 38 7 4 3 9 -11 13 -13 4 -23 11 -23 16 0 6 8 7
18 3 9 -4 23 -8 30 -8z m-2528 -17 c0 -11 -4 -20 -9 -20 -5 0 -7 9 -4 20 3 11
7 20 9 20 2 0 4 -9 4 -20z m1539 6 c9 -10 8 -15 -4 -19 -9 -4 -19 2 -25 13 -8
16 -8 20 3 20 8 0 20 -6 26 -14z m-1182 -58 c-2 -13 -4 -3 -4 22 0 25 2 35 4
23 2 -13 2 -33 0 -45z m2103 55 c0 -23 -22 -83 -30 -83 -6 0 -10 14 -10 31 0
17 -4 28 -10 24 -5 -3 -10 -1 -10 6 0 7 8 9 21 6 15 -4 19 -2 15 9 -3 8 1 14
9 14 8 0 15 -3 15 -7z m187 -18 c-7 -7 -18 -10 -24 -8 -7 3 -13 0 -13 -6 0 -6
7 -11 15 -11 8 0 15 -7 15 -15 0 -8 -8 -15 -18 -15 -14 0 -18 8 -18 33 0 36
10 47 37 40 14 -4 15 -8 6 -18z m-2177 -32 c0 -29 -4 -43 -9 -37 -13 12 -16
45 -6 67 12 27 15 20 15 -30z m1130 6 c0 -24 -4 -38 -10 -34 -5 3 -10 22 -10
41 0 19 5 34 10 34 6 0 10 -18 10 -41z m1090 7 c0 -35 -13 -55 -24 -37 -8 13
5 71 15 71 5 0 9 -15 9 -34z m50 18 c0 -8 -4 -14 -10 -14 -5 0 -10 -7 -10 -17
0 -24 -11 -9 -14 19 -2 17 2 24 16 25 10 1 18 -5 18 -13z m-1935 -14 c3 -5 -1
-10 -10 -10 -9 0 -13 5 -10 10 3 6 8 10 10 10 2 0 7 -4 10 -10z m-808 -32 c-3
-8 -6 -5 -6 6 -1 11 2 17 5 13 3 -3 4 -12 1 -19z m600 -45 c-2 -16 -4 -5 -4
22 0 28 2 40 4 28 2 -13 2 -35 0 -50z m691 50 c-10 -2 -26 -2 -35 0 -10 3 -2
5 17 5 19 0 27 -2 18 -5z m30 -45 c-1 -44 -2 -46 -5 -15 -2 20 -9 37 -14 37
-8 0 10 28 19 30 1 0 1 -24 0 -52z m-1338 32 c0 -5 -13 -10 -29 -10 -17 0 -33
5 -36 10 -4 6 8 10 29 10 20 0 36 -4 36 -10z m820 0 c0 -5 -5 -10 -11 -10 -5
0 -7 5 -4 10 3 6 8 10 11 10 2 0 4 -4 4 -10z m120 6 c0 -3 -4 -8 -10 -11 -5
-3 -10 -1 -10 4 0 6 5 11 10 11 6 0 10 -2 10 -4z m127 -2 c-3 -3 -12 -4 -19
-1 -8 3 -5 6 6 6 11 1 17 -2 13 -5z m171 -10 c15 -15 14 -16 -5 -10 -11 4 -41
11 -64 15 l-44 9 48 1 c33 1 54 -4 65 -15z m602 12 c0 -3 -4 -8 -10 -11 -5 -3
-10 -1 -10 4 0 6 5 11 10 11 6 0 10 -2 10 -4z m70 -2 c0 -8 -19 -13 -24 -6 -3
5 1 9 9 9 8 0 15 -2 15 -3z m87 0 c-3 -3 -12 -4 -19 -1 -8 3 -5 6 6 6 11 1 17
-2 13 -5z m-1257 -37 c0 -35 -23 -77 -36 -64 -4 4 -3 7 3 7 5 0 8 13 5 30 -2
16 -2 37 2 45 10 27 26 16 26 -18z m1533 26 c-7 -2 -21 -2 -30 0 -10 3 -4 5
12 5 17 0 24 -2 18 -5z m-1896 -40 c-3 -10 -5 -4 -5 12 0 17 2 24 5 18 2 -7 2
-21 0 -30z m515 0 c-3 -16 -7 -22 -10 -15 -4 13 4 42 11 42 2 0 2 -12 -1 -27z
m216 4 c5 -24 -15 -21 -21 4 -3 13 -1 19 6 16 7 -2 13 -11 15 -20z m-59 -57
c11 0 23 5 26 10 3 6 11 10 17 10 6 0 -1 -9 -15 -21 -21 -16 -31 -18 -46 -9
-25 13 -44 47 -35 61 4 7 12 -1 20 -20 8 -20 20 -31 33 -31z m-223 -24 c-1
-11 -7 -21 -14 -24 -9 -3 -12 4 -8 25 2 15 5 39 6 53 2 23 3 23 9 -5 4 -16 7
-39 7 -49z m-809 27 c-3 -10 -5 -4 -5 12 0 17 2 24 5 18 2 -7 2 -21 0 -30z
m633 23 c0 -3 -4 -8 -10 -11 -5 -3 -10 -1 -10 4 0 6 5 11 10 11 6 0 10 -2 10
-4z m260 -20 c9 -12 8 -15 -9 -13 -21 1 -26 8 -14 20 9 9 9 9 23 -7z m845 4
c-3 -5 -12 -10 -18 -10 -7 0 -6 4 3 10 19 12 23 12 15 0z m-1772 -7 c-7 -2
-21 -2 -30 0 -10 3 -4 5 12 5 17 0 24 -2 18 -5z m977 3 c0 -3 -4 -8 -10 -11
-5 -3 -10 -1 -10 4 0 6 5 11 10 11 6 0 10 -2 10 -4z m260 -6 c0 -5 -7 -7 -15
-4 -8 4 -15 8 -15 10 0 2 7 4 15 4 8 0 15 -4 15 -10z m489 -1 c-10 -6 -2 -9
24 -9 20 0 37 5 37 10 0 6 7 10 16 10 8 0 13 -4 10 -9 -8 -13 46 -21 145 -21
78 0 88 -2 94 -19 4 -14 11 -18 23 -14 10 4 12 8 4 11 -23 7 -12 19 16 17 15
-1 43 -3 62 -4 29 -2 32 -4 15 -11 -16 -7 -13 -9 18 -9 20 -1 37 -5 37 -11 0
-5 7 -10 15 -10 8 0 15 4 15 9 0 6 12 3 28 -4 15 -8 34 -12 44 -9 9 2 19 0 23
-6 4 -6 1 -11 -6 -9 -8 1 -36 1 -64 -1 -36 -1 -45 -4 -30 -9 11 -5 23 -7 28
-4 4 2 7 -1 7 -6 0 -6 -5 -11 -11 -11 -5 0 -8 -4 -4 -9 3 -5 1 -12 -5 -16 -5
-3 -10 -1 -10 4 0 7 -23 10 -65 7 -35 -2 -62 1 -59 5 3 5 -2 6 -10 3 -9 -3
-16 -10 -16 -15 0 -5 -5 -9 -11 -9 -5 0 -7 5 -4 10 4 6 -5 10 -19 10 -14 0
-26 -5 -26 -10 0 -7 -7 -7 -20 0 -11 6 -18 15 -16 19 3 4 -8 8 -23 7 -16 -1
-27 -4 -25 -7 2 -3 -10 -6 -27 -7 -52 -1 -88 -13 -83 -26 5 -12 -34 -39 -52
-35 -27 5 -55 -2 -48 -13 5 -7 2 -9 -8 -5 -9 3 -20 1 -25 -4 -7 -7 -19 -6 -36
2 -26 12 -27 12 -7 26 13 9 33 12 53 9 17 -3 26 -3 20 0 -18 8 -16 25 1 18 8
-3 16 -1 19 3 3 5 -8 10 -24 11 -19 2 -28 -2 -24 -8 3 -5 -3 -10 -14 -10 -12
0 -21 5 -21 10 0 6 6 10 13 10 8 0 9 2 1 8 -10 6 -17 34 -27 113 -3 23 1 25
32 26 23 1 30 -2 20 -8z m191 0 c0 -8 -66 -7 -74 2 -3 2 13 5 35 5 21 1 39 -2
39 -7z m118 -4 c4 -3 -19 -5 -50 -4 -32 1 -55 5 -53 9 5 8 94 4 103 -5z
m-1583 -5 c3 -5 1 -10 -4 -10 -6 0 -11 5 -11 10 0 6 2 10 4 10 3 0 8 -4 11
-10z m135 0 c0 -5 -8 -10 -17 -10 -15 0 -16 2 -3 10 19 12 20 12 20 0z m47
-22 c-3 -7 -5 -2 -5 12 0 14 2 19 5 13 2 -7 2 -19 0 -25z m1510 26 c-3 -3 -12
-4 -19 -1 -8 3 -5 6 6 6 11 1 17 -2 13 -5z m52 -4 c-6 -5 -18 -6 -26 -3 -19 8
-16 11 13 11 17 0 22 -3 13 -8z m-1466 -7 c-7 -2 -21 -2 -30 0 -10 3 -4 5 12
5 17 0 24 -2 18 -5z m44 1 c-3 -3 -12 -4 -19 -1 -8 3 -5 6 6 6 11 1 17 -2 13
-5z m-680 -10 c-3 -3 -12 -4 -19 -1 -8 3 -5 6 6 6 11 1 17 -2 13 -5z m1496
-14 c-3 -11 -7 -20 -9 -20 -2 0 -4 9 -4 20 0 11 4 20 9 20 5 0 7 -9 4 -20z
m-1736 -7 c5 -13 -37 -28 -58 -21 -17 6 20 40 39 36 8 -2 17 -8 19 -15z m48
-5 c-19 -11 -30 -5 -21 11 4 6 14 7 22 4 15 -5 14 -7 -1 -15z m438 15 c-13 -2
-35 -2 -50 0 -16 2 -5 4 22 4 28 0 40 -2 28 -4z m80 0 c-7 -2 -21 -2 -30 0
-10 3 -4 5 12 5 17 0 24 -2 18 -5z m157 -9 c0 -2 -15 -4 -32 -3 -27 0 -29 2
-13 8 18 8 45 4 45 -5z m1647 10 c-3 -3 -12 -4 -19 -1 -8 3 -5 6 6 6 11 1 17
-2 13 -5z m-1514 -11 c-7 -2 -19 -2 -25 0 -7 3 -2 5 12 5 14 0 19 -2 13 -5z
m417 -22 c0 -4 -7 -8 -15 -8 -16 0 -20 9 -9 20 8 8 24 -1 24 -12z m87 4 c4 -4
2 -5 -4 -1 -7 4 -13 2 -13 -4 0 -6 -4 -8 -10 -5 -5 3 -10 10 -10 15 0 10 27 7
37 -5z m-1440 -1 c-3 -3 -12 -4 -19 -1 -8 3 -5 6 6 6 11 1 17 -2 13 -5z m1268
-4 c3 -5 1 -10 -4 -10 -6 0 -11 5 -11 10 0 6 2 10 4 10 3 0 8 -4 11 -10z
m-1174 -33 c-10 -9 -11 -8 -5 6 3 10 9 15 12 12 3 -3 0 -11 -7 -18z m-64 -4
c-20 -2 -52 -2 -70 0 -17 2 0 4 38 4 39 0 53 -2 32 -4z m11 -23 c23 0 42 -4
42 -10 0 -17 -108 -9 -122 8 -11 13 -10 15 12 9 14 -4 44 -7 68 -7z m1829 -22
c-3 -8 -6 -5 -6 6 -1 11 2 17 5 13 3 -3 4 -12 1 -19z m346 5 c-7 -2 -19 -2
-25 0 -7 3 -2 5 12 5 14 0 19 -2 13 -5z m-93 -18 c10 -12 9 -15 -7 -15 -11 0
-20 7 -20 15 0 8 4 15 7 15 4 0 13 -7 20 -15z m113 -2 c-7 -2 -19 -2 -25 0 -7
3 -2 5 12 5 14 0 19 -2 13 -5z m-383 -38 c0 -19 -20 -29 -32 -17 -15 15 -2 43
17 36 8 -3 15 -12 15 -19z m564 11 c-3 -7 -16 -18 -30 -25 -32 -14 -35 -14
-28 4 4 10 0 15 -12 16 -11 1 -5 4 11 8 51 11 64 10 59 -3z m59 4 c-14 -13
-53 -22 -53 -12 0 14 9 20 36 20 14 0 22 -4 17 -8z m-203 -10 c-25 -5 -54 -6
-65 -3 l-20 5 20 -15 c19 -15 17 -15 -21 -10 -33 4 -41 2 -41 -11 0 -9 6 -16
14 -16 7 0 13 4 13 10 0 5 13 7 30 4 19 -4 30 -2 30 5 0 6 7 11 15 11 8 0 15
-2 15 -4 0 -2 3 -11 6 -19 4 -12 0 -14 -18 -10 -20 4 -20 3 7 -17 l30 -21 -40
2 c-22 1 -47 1 -56 0 -19 -1 -21 -31 -2 -31 7 0 13 4 13 10 0 5 10 9 23 8 12
-1 46 2 76 6 43 7 53 6 49 -5 -3 -10 -23 -14 -66 -14 -34 -1 -64 -4 -68 -8 -4
-4 0 -7 9 -7 18 0 24 -19 7 -21 -5 -1 -16 -2 -22 -3 -7 -1 -12 -8 -10 -15 2
-10 -4 -12 -23 -7 -17 4 -24 3 -20 -4 4 -6 -7 -10 -27 -11 l-33 -1 30 -7 c28
-6 27 -7 -19 -14 -69 -10 -115 -9 -97 2 11 7 10 10 -5 14 -10 2 -1 6 21 7 l40
2 -34 9 c-43 13 -97 8 -93 -8 1 -8 -8 -13 -20 -13 -19 0 -23 6 -23 29 0 16 2
28 5 26 3 -2 21 0 40 5 32 7 33 8 8 9 -24 1 -28 5 -28 31 0 23 5 31 25 36 14
3 37 4 50 2 21 -4 23 -3 14 9 -7 7 -17 13 -23 12 -29 -4 -89 2 -83 7 3 4 28 8
54 9 26 1 47 6 46 11 -1 5 16 9 37 8 22 0 37 3 34 8 -3 4 50 7 118 7 95 -1
113 -3 78 -9z m32 -19 c-11 -7 -11 -9 1 -14 8 -3 21 0 28 6 11 10 11 9 1 -4
-6 -9 -9 -19 -5 -22 3 -4 -1 -7 -11 -7 -9 0 -14 5 -11 10 3 6 2 10 -4 10 -5 0
-11 -3 -14 -7 -2 -5 -2 -2 -1 5 2 6 -2 12 -9 12 -8 0 -6 4 3 10 8 5 20 10 25
10 6 0 4 -4 -3 -9z m-638 -11 c-6 -6 -21 -6 -39 -1 -30 9 -30 9 10 10 25 1 36
-2 29 -9z m763 4 c-3 -3 -12 -4 -19 -1 -8 3 -5 6 6 6 11 1 17 -2 13 -5z m-490
-30 c-3 -3 -12 -4 -19 -1 -8 3 -5 6 6 6 11 1 17 -2 13 -5z m477 -18 c-3 -9
-12 -12 -22 -9 -15 6 -9 11 25 22 1 1 0 -5 -3 -13z m-134 -56 c12 -8 11 -10
-7 -10 -13 0 -23 5 -23 10 0 13 11 13 30 0z m29 -33 c10 -13 -2 -15 -39 -8 -4
1 21 20 26 21 1 0 7 -6 13 -13z m68 7 c-3 -3 -12 -4 -19 -1 -8 3 -5 6 6 6 11
1 17 -2 13 -5z m-127 -14 c-8 -5 -22 -9 -30 -9 -10 0 -8 3 5 9 27 12 43 12 25
0z m173 3 c-7 -2 -19 -2 -25 0 -7 3 -2 5 12 5 14 0 19 -2 13 -5z m-63 -13 c0
-5 -2 -10 -4 -10 -3 0 -8 5 -11 10 -3 6 -1 10 4 10 6 0 11 -4 11 -10z m-383
-46 c-3 -3 -12 -4 -19 -1 -8 3 -5 6 6 6 11 1 17 -2 13 -5z m293 -4 c0 -5 -8
-10 -17 -10 -15 0 -16 2 -3 10 19 12 20 12 20 0z m-94 -9 c-10 -15 -43 -19
-43 -5 0 8 11 14 24 14 13 0 22 -4 19 -9z m141 3 c-3 -3 -12 -4 -19 -1 -8 3
-5 6 6 6 11 1 17 -2 13 -5z m-290 -10 c-3 -3 -12 -4 -19 -1 -8 3 -5 6 6 6 11
1 17 -2 13 -5z m56 -6 c3 -10 7 -10 20 1 11 9 17 10 17 2 0 -6 -4 -11 -10 -11
-5 0 -10 -5 -10 -11 0 -6 9 -8 20 -4 12 4 20 2 20 -5 0 -6 -16 -11 -37 -10
-21 0 -45 0 -53 -1 -8 0 -28 4 -45 9 -29 10 -29 10 -5 11 14 1 36 4 49 8 23 6
23 7 5 14 -18 7 -18 8 3 8 12 1 23 -5 26 -11z m110 -35 c-7 -2 -21 -2 -30 0
-10 3 -4 5 12 5 17 0 24 -2 18 -5z m-220 -40 c-7 -2 -19 -2 -25 0 -7 3 -2 5
12 5 14 0 19 -2 13 -5z m44 -29 c-3 -3 -12 -4 -19 -1 -8 3 -5 6 6 6 11 1 17
-2 13 -5z"/>
<path d="M1753 1323 c9 -2 23 -2 30 0 6 3 -1 5 -18 5 -16 0 -22 -2 -12 -5z"/>
<path d="M911 1124 c0 -11 3 -14 6 -6 3 7 2 16 -1 19 -3 4 -6 -2 -5 -13z"/>
<path d="M591 1094 c0 -11 3 -14 6 -6 3 7 2 16 -1 19 -3 4 -6 -2 -5 -13z"/>
<path d="M2213 963 c4 -3 5 -9 1 -14 -7 -12 7 -11 26 1 9 6 10 10 3 10 -6 0
-17 2 -25 3 -7 2 -10 2 -5 0z"/>
<path d="M2165 950 c3 -5 8 -10 11 -10 2 0 4 5 4 10 0 6 -5 10 -11 10 -5 0 -7
-4 -4 -10z"/>
<path d="M2589 943 c-13 -16 -12 -17 4 -4 9 7 17 15 17 17 0 8 -8 3 -21 -13z"/>
<path d="M2264 868 c-5 -7 -3 -8 6 -3 10 6 12 4 7 -8 -3 -10 -3 -17 1 -17 10
0 32 22 32 32 0 12 -38 9 -46 -4z"/>
<path d="M2356 785 c-3 -8 -1 -15 4 -15 13 0 22 18 11 24 -5 3 -11 -1 -15 -9z"/>
<path d="M2275 770 c12 -5 14 -9 6 -9 -8 -1 -12 -3 -9 -6 9 -9 58 6 52 16 -3
5 -20 9 -37 8 -27 0 -29 -2 -12 -9z"/>
<path d="M2358 753 c7 -3 16 -2 19 1 4 3 -2 6 -13 5 -11 0 -14 -3 -6 -6z"/>
<path d="M2296 741 c-15 -6 -16 -9 -5 -13 8 -3 20 1 27 8 14 15 7 17 -22 5z"/>
<path d="M2336 722 c-16 -18 -15 -19 16 -20 30 -1 31 0 13 11 -19 11 -19 11 5
18 22 6 22 7 4 8 -11 1 -28 -7 -38 -17z"/>
<path d="M2418 733 c12 -2 30 -2 40 0 9 3 -1 5 -23 4 -22 0 -30 -2 -17 -4z"/>
<path d="M2747 1496 c-16 -35 -14 -71 5 -60 5 3 12 -3 15 -15 3 -11 9 -18 14
-15 5 3 9 0 9 -7 0 -8 4 -8 15 1 8 7 15 8 15 2 0 -5 9 -12 20 -15 16 -4 18 -2
10 13 -8 15 -6 17 13 14 12 -2 17 -2 10 2 -8 4 -9 13 -3 30 7 19 6 24 -5 24
-8 0 -14 5 -12 12 1 7 -12 15 -31 18 -18 3 -32 10 -32 15 3 26 -28 12 -43 -19z"/>
<path d="M2620 1494 c-9 -21 -7 -29 7 -40 27 -20 47 -22 61 -7 8 7 8 13 2 13
-5 0 -10 7 -10 15 0 8 -4 15 -10 15 -5 0 -10 7 -10 15 0 25 -30 17 -40 -11z"/>
<path d="M1053 1495 c-24 -7 -43 -11 -43 -8 0 3 -16 -4 -35 -15 -19 -12 -70
-26 -117 -32 -89 -12 -98 -15 -98 -32 0 -7 4 -7 13 0 17 13 77 21 77 9 0 -5
14 -7 30 -5 17 3 33 1 36 -4 3 -5 11 -5 17 0 23 18 129 33 144 20 10 -8 17 -8
25 0 7 7 8 13 3 13 -6 1 22 7 60 13 l70 12 -42 22 c-48 25 -79 27 -140 7z m42
-55 c3 -5 1 -10 -4 -10 -6 0 -11 5 -11 10 0 6 2 10 4 10 3 0 8 -4 11 -10z"/>
<path d="M1337 1455 c-10 -14 -13 -25 -7 -25 5 0 10 4 10 9 0 4 17 15 38 24
l37 15 -30 1 c-21 0 -35 -7 -48 -24z"/>
<path d="M830 1466 c0 -7 40 -14 44 -7 3 4 -6 8 -20 9 -13 1 -24 0 -24 -2z"/>
<path d="M1245 1451 c-3 -5 -2 -12 3 -15 5 -3 9 1 9 9 0 17 -3 19 -12 6z"/>
<path d="M1278 1453 c7 -3 16 -2 19 1 4 3 -2 6 -13 5 -11 0 -14 -3 -6 -6z"/>
<path d="M2450 1445 c0 -8 0 -18 0 -22 0 -11 39 -12 46 -1 8 12 -15 38 -32 38
-8 0 -14 -7 -14 -15z"/>
<path d="M2932 1448 c-7 -7 -12 -18 -12 -25 0 -7 -7 -13 -16 -13 -14 0 -14 -3
-4 -15 7 -8 18 -15 25 -15 7 0 16 -11 19 -25 4 -16 11 -22 20 -19 8 3 12 12
10 19 -3 7 4 19 16 25 17 9 19 14 9 26 -6 8 -9 14 -5 14 3 0 -2 9 -11 20 -20
23 -34 25 -51 8z"/>
<path d="M514 1381 c3 -5 15 -7 26 -4 28 7 25 13 -6 13 -14 0 -23 -4 -20 -9z"/>
<path d="M788 1363 c7 -3 16 -2 19 1 4 3 -2 6 -13 5 -11 0 -14 -3 -6 -6z"/>
<path d="M2920 1361 c0 -6 4 -13 10 -16 6 -3 7 1 4 9 -7 18 -14 21 -14 7z"/>
<path d="M121 1303 c3 -20 -2 -34 -10 -29 -13 8 -41 -4 -41 -18 0 -14 48 -33
72 -28 23 4 32 36 18 62 -10 19 -41 29 -39 13z"/>
<path d="M36 1243 c-7 -18 14 -37 27 -24 9 9 -1 41 -13 41 -4 0 -11 -8 -14
-17z"/>
<path d="M131 1184 c0 -11 3 -14 6 -6 3 7 2 16 -1 19 -3 4 -6 -2 -5 -13z"/>
</g>
</svg>
